<svg width="245" height="79" viewBox="0 0 245 79" fill="none" xmlns="http://www.w3.org/2000/svg">
<path d="M130.637 79V59.7824H133.78V67.6711H142.653V59.7824H145.809V79H142.653V70.5695H133.78V78.9496L130.637 79ZM153.109 76.0512V70.5695H160.042V67.6711H153.109V62.7312H161.183V59.7824H149.953V79H161.487V76.0512H153.109ZM188.446 76.0512V59.7824H185.303V79H196.456V76.0512H188.446ZM216.33 79V70.5695H225.202V78.9496H228.358V59.7824H225.202V67.6711H216.33V59.7824H213.187V79H216.33ZM201.247 79H204.416V62.7312H210.094V59.7824H195.607V62.7312H201.285L201.247 79ZM168.712 74.7784L167.051 79H163.642L171.411 59.7824H174.377L182.159 79H178.75L177.089 74.7784H168.712ZM175.987 71.8296L172.932 64.0544L169.84 71.8296H175.987ZM22.5481 45.3661H13.4858V8.11549H0V0H35.9071V8.11549H22.5481V45.3661ZM78.9754 0H70.3187V45.3661H78.9754V0ZM218.688 38.0067C217.156 38.0066 215.649 37.6183 214.31 36.8784C212.972 36.1386 211.844 35.0717 211.036 33.7784C210.227 32.4851 209.763 31.0082 209.687 29.4871C209.612 27.966 209.928 26.4509 210.606 25.085C211.283 23.719 212.299 22.5473 213.559 21.6803C214.818 20.8134 216.279 20.28 217.803 20.1304C219.327 19.9808 220.865 20.22 222.271 20.8254C223.676 21.4308 224.903 22.3824 225.836 23.5904L232.376 18.5497C230.181 15.7026 227.145 13.6107 223.693 12.5679C220.241 11.5252 216.547 11.5839 213.13 12.7359C209.714 13.888 206.746 16.0754 204.644 18.9908C202.542 21.9062 201.412 25.4031 201.412 28.9902C201.412 32.5773 202.542 36.0742 204.644 38.9896C206.746 41.905 209.714 44.0924 213.13 45.2444C216.547 46.3965 220.241 46.4552 223.693 45.4124C227.145 44.3697 230.181 42.2778 232.376 39.4307L225.836 34.39C225.006 35.5007 223.929 36.4052 222.689 37.0327C221.449 37.6602 220.079 37.9935 218.688 38.0067ZM157.634 0V29.0469C157.639 32.8512 156.375 36.5496 154.039 39.5628C151.703 42.5759 148.428 44.7335 144.727 45.6975C141.025 46.6614 137.107 46.3773 133.585 44.8896C130.064 43.4019 127.138 40.7946 125.266 37.4764C123.395 34.1582 122.684 30.3165 123.244 26.5532C123.804 22.79 125.604 19.3178 128.362 16.6807C131.12 14.0437 134.68 12.3908 138.484 11.981C142.288 11.5712 146.121 12.4277 149.383 14.4163V0H157.634ZM149.383 29.0469C149.383 27.2743 148.854 25.5415 147.863 24.0678C146.872 22.5941 145.464 21.4457 143.817 20.7679C142.169 20.0901 140.357 19.9135 138.608 20.2602C136.86 20.6069 135.254 21.4615 133.995 22.7158C132.735 23.9701 131.877 25.5678 131.531 27.3067C131.185 29.0455 131.365 30.8474 132.049 32.4844C132.733 34.1214 133.89 35.5198 135.374 36.5028C136.857 37.4858 138.601 38.0092 140.384 38.0067C141.567 38.0067 142.738 37.7749 143.831 37.3244C144.923 36.874 145.916 36.2138 146.752 35.3817C147.587 34.5495 148.25 33.5617 148.701 32.4747C149.153 31.3877 149.384 30.2229 149.383 29.0469ZM101.219 11.8834C96.7236 12.0045 92.4529 13.8653 89.3162 17.0697C86.1794 20.2741 84.4243 24.5691 84.4243 29.0406C84.4243 33.5121 86.1794 37.8071 89.3162 41.0115C92.4529 44.2159 96.7236 46.0766 101.219 46.1978C104.487 46.1887 107.664 45.1227 110.269 43.1608V45.7819H118.507V29.0469C118.509 26.7904 118.063 24.5557 117.194 22.4709C116.326 20.3862 115.052 18.4923 113.446 16.8978C111.84 15.3034 109.933 14.0397 107.835 13.1793C105.737 12.3188 103.489 11.8784 101.219 11.8834ZM101.219 38.0067C99.4387 37.9992 97.7001 37.4674 96.2232 36.4784C94.7462 35.4893 93.5971 34.0874 92.9208 32.4496C92.2446 30.8117 92.0715 29.0114 92.4235 27.2759C92.7755 25.5403 93.6368 23.9474 94.8986 22.6981C96.1604 21.4488 97.7662 20.5993 99.5132 20.2566C101.26 19.9139 103.07 20.0936 104.715 20.7728C106.359 21.452 107.764 22.6005 108.753 24.0731C109.741 25.5457 110.269 27.2764 110.269 29.0469C110.267 30.2262 110.032 31.3937 109.576 32.4824C109.12 33.5712 108.453 34.56 107.612 35.3921C106.772 36.2243 105.775 36.8835 104.678 37.3322C103.581 37.7808 102.406 38.01 101.219 38.0067ZM236.838 45.3661H237.535V40.9807H239.17V40.3254H235.203V40.9429H236.838V45.3661ZM242.604 44.7612L244.341 41.7494V45.3661H245V40.3254H244.442L242.44 43.8413L240.437 40.3254H239.867V45.3661H240.526V41.7494L242.262 44.7612H242.604ZM39.2152 32.3233C39.8022 33.8973 40.8028 35.2861 42.113 36.3449C43.4232 37.4037 44.995 38.0939 46.6646 38.3436C48.3342 38.5932 50.0407 38.3932 51.6061 37.7643C53.1716 37.1355 54.5388 36.1008 55.5654 34.7681L61.7506 39.4811C59.2591 42.7034 55.6974 44.9413 51.7007 45.7956C47.704 46.65 43.532 46.0653 39.9285 44.1459C36.325 42.2264 33.5243 39.097 32.0256 35.3154C30.5269 31.5339 30.4277 27.3461 31.7457 23.4986C33.0637 19.651 35.7131 16.394 39.2217 14.308C42.7303 12.222 46.87 11.4427 50.9027 12.1091C54.9355 12.7754 58.5991 14.844 61.2405 17.9462C63.8819 21.0484 65.3294 24.9824 65.3249 29.0469C65.323 30.1465 65.2169 31.2435 65.008 32.3233H39.2152ZM39.2152 25.7705H56.9596C56.2965 23.9606 55.0895 22.3973 53.5024 21.2927C51.9152 20.1881 50.0248 19.5956 48.0874 19.5956C46.1501 19.5956 44.2596 20.1881 42.6725 21.2927C41.0853 22.3973 39.8783 23.9606 39.2152 25.7705ZM182.362 12.1228C183.274 13.3371 183.728 14.8315 183.645 16.3448C183.561 17.8581 182.946 19.2942 181.906 20.4021C184.047 20.9431 185.914 22.2474 187.151 24.067C188.389 25.8866 188.911 28.0949 188.619 30.2722C188.326 32.4495 187.239 34.4441 185.565 35.877C183.89 37.3099 181.745 38.0812 179.536 38.0445C178.812 38.4589 178.21 39.0556 177.792 39.7746C177.374 40.4936 177.154 41.3095 177.154 42.1401C177.154 42.9706 177.374 43.7865 177.792 44.5055C178.21 45.2245 178.812 45.8213 179.536 46.2356C183.821 46.1732 187.929 44.5271 191.061 41.618C194.192 38.7088 196.122 34.7448 196.475 30.4983C196.828 26.2517 195.578 22.0267 192.969 18.6461C190.36 15.2655 186.579 12.9716 182.362 12.211V12.1228ZM175.404 42.1023C175.404 40.4624 176.034 38.8846 177.166 37.6917C175.024 37.1507 173.157 35.8464 171.92 34.0268C170.682 32.2071 170.16 29.9989 170.453 27.8216C170.745 25.6443 171.832 23.6497 173.506 22.2168C175.181 20.7839 177.327 20.0126 179.536 20.0493C180.259 19.6332 180.86 19.0352 181.278 18.3152C181.696 17.5952 181.916 16.7786 181.916 15.9474C181.916 15.1162 181.696 14.2997 181.278 13.5797C180.86 12.8597 180.259 12.2617 179.536 11.8456C175.211 11.8572 171.048 13.4824 167.871 16.3996C164.693 19.3168 162.733 23.3135 162.378 27.5989C162.023 31.8843 163.298 36.1462 165.952 39.5413C168.606 42.9365 172.445 45.2175 176.709 45.9332C175.872 44.8288 175.414 43.4855 175.404 42.1023Z" fill="black"/>
</svg>
