<svg width="245" height="61" viewBox="0 0 245 61" fill="none" xmlns="http://www.w3.org/2000/svg">
<path d="M21.6069 0C9.67514 0 0 9.67176 0 21.6069C0 33.5387 9.67176 43.2138 21.6069 43.2138C33.5387 43.2138 43.2138 33.5421 43.2138 21.6069C43.2138 9.67514 33.5387 0 21.6069 0ZM21.6069 31.7077C16.0261 31.7077 11.5027 27.1843 11.5027 21.6035C11.5027 16.0261 16.0261 11.4994 21.6069 11.4994C27.1877 11.4994 31.7111 16.0261 31.7111 21.6035C31.7111 27.1877 27.1843 31.7077 21.6069 31.7077Z" fill="white"/>
<path d="M42.954 48.9736V54.7368C42.954 57.9191 40.2616 60.5 37.0996 60.5H0.314453V54.7368C0.314453 51.5546 3.00687 48.9736 6.16886 48.9736H42.954Z" fill="#00BCE7"/>
<path d="M79.5322 21.8437C79.5322 21.8437 79.5323 24.4551 79.5221 24.5125C79.4343 25.7861 78.3533 26.7961 77.0763 26.8333H70.1916V48.9132H63.7426V26.8333H54.7363V21.8505H63.2494L63.2528 21.8403H79.5322V21.8437Z" fill="white"/>
<path d="M100.988 43.9267V48.9028H82.4551V21.8435H100.988V24.5021C100.907 25.7352 99.8899 26.7216 98.667 26.8162H88.9513V32.8159H98.8427V37.7919H88.9513V43.9267H100.988Z" fill="white"/>
<path d="M121.331 43.9166V48.8961H103.91V21.8435H110.363V43.9166H121.331Z" fill="white"/>
<path d="M140.617 21.8435H134.016L123.544 48.8994H128.628C129.145 48.8994 129.584 48.7609 129.946 48.4805C130.307 48.2035 130.544 47.8894 130.672 47.5448L132.266 42.8288H142.377L143.972 47.5448C144.11 47.9434 144.357 48.2643 144.708 48.5211C145.063 48.7711 145.509 48.9028 146.056 48.9028H151.1L140.617 21.8435ZM133.712 38.5554L136.199 31.1842C136.384 30.7146 136.584 30.1572 136.79 29.512C136.972 28.9647 137.145 28.3702 137.317 27.7384C137.499 28.36 137.678 28.9445 137.864 29.485C138.08 30.1235 138.269 30.6741 138.432 31.147L140.918 38.552H133.712V38.5554Z" fill="white"/>
<path d="M177.021 29.9683C176.345 28.3163 175.4 26.8907 174.173 25.6847C172.944 24.4855 171.467 23.5429 169.741 22.8605C168.015 22.1782 166.099 21.8403 163.991 21.8403H153.303V48.8963H163.991C166.099 48.8963 168.011 48.5618 169.741 47.8862C171.467 47.2106 172.944 46.268 174.173 45.062C175.396 43.8526 176.345 42.427 177.021 40.7751C177.697 39.1232 178.031 37.3158 178.031 35.3632C178.031 33.4174 177.697 31.6236 177.021 29.9683ZM159.799 44.0722V26.6745H163.816C165.018 26.6745 166.089 26.8772 167.028 27.2758C167.971 27.6812 168.765 28.2521 169.417 29.0021C170.069 29.7521 170.562 30.6642 170.913 31.7418C171.258 32.8161 171.43 34.0255 171.43 35.3632C171.43 36.7111 171.258 37.9239 170.913 39.0016C170.562 40.0826 170.069 40.9947 169.417 41.7413C168.765 42.4912 167.971 43.0689 167.028 43.4675C166.089 43.8729 165.018 44.0756 163.816 44.0756H159.799V44.0722Z" fill="white"/>
<path d="M206.938 30.0356C206.276 28.3904 205.35 26.9615 204.148 25.7487C202.952 24.5359 201.506 23.5867 199.817 22.8907C198.128 22.1915 196.253 21.8435 194.192 21.8435H194.02C191.963 21.8435 190.084 22.1915 188.389 22.8806C186.689 23.5698 185.24 24.5224 184.034 25.7284C182.831 26.9412 181.899 28.3702 181.237 30.0221C180.575 31.6673 180.247 33.451 180.247 35.363C180.247 37.2751 180.575 39.0588 181.237 40.704C181.899 42.3491 182.831 43.7849 184.034 45.001C185.24 46.2172 186.689 47.1732 188.389 47.8657C190.084 48.5549 191.963 48.8994 194.02 48.8994H194.192C196.253 48.8994 198.128 48.5583 199.817 47.8657C201.506 47.1766 202.952 46.2205 204.148 45.001C205.35 43.7849 206.276 42.3491 206.938 40.704C207.6 39.0588 207.928 37.2751 207.928 35.363C207.928 33.4611 207.6 31.6876 206.938 30.0356ZM194.104 43.8153C192.949 43.8051 191.925 43.6126 191.023 43.241C190.098 42.8592 189.314 42.3052 188.676 41.5789C188.044 40.8492 187.554 39.9608 187.213 38.9135C186.875 37.8663 186.706 36.6839 186.706 35.363C186.706 34.0557 186.875 32.8767 187.213 31.8294C187.554 30.7822 188.044 29.8937 188.676 29.1674C189.314 28.4377 190.094 27.8837 191.023 27.4918C191.925 27.1135 192.949 26.9209 194.104 26.9108C195.243 26.9209 196.266 27.1135 197.162 27.4918C198.084 27.8837 198.861 28.4377 199.499 29.1674C200.131 29.8904 200.621 30.7788 200.962 31.8294C201.3 32.8767 201.469 34.0557 201.469 35.363C201.469 36.6805 201.3 37.8629 200.962 38.9135C200.621 39.9608 200.131 40.8492 199.499 41.5789C198.861 42.3018 198.084 42.8592 197.162 43.241C196.266 43.6126 195.243 43.8051 194.104 43.8153Z" fill="white"/>
<path d="M230.488 42.1228L232.92 44.6835C231.852 46.0787 230.521 47.1259 228.913 47.8353C227.309 48.5447 225.414 48.8994 223.221 48.8994H223.049C221.035 48.8994 219.235 48.5549 217.64 47.8759C216.046 47.1901 214.695 46.2442 213.59 45.0348C212.478 43.8322 211.63 42.4032 211.036 40.7512C210.441 39.0959 210.147 37.2987 210.147 35.363C210.147 33.3868 210.485 31.5727 211.168 29.9208C211.843 28.2654 212.789 26.8399 214.012 25.644C215.228 24.4413 216.681 23.509 218.377 22.8435C220.076 22.1779 221.944 21.8435 223.995 21.8435H224.167C225.16 21.8435 226.099 21.9313 226.978 22.1104C227.856 22.2827 228.677 22.5259 229.437 22.8333C230.204 23.1441 230.903 23.5157 231.548 23.9447C232.19 24.3738 232.761 24.8467 233.258 25.3703L231.187 28.1506C231.052 28.3195 230.896 28.4749 230.714 28.6134C230.531 28.7519 230.281 28.8195 229.95 28.8195C229.92 28.8195 229.893 28.8195 229.863 28.8161C229.832 28.8195 229.805 28.8195 229.775 28.8195C229.559 28.8195 229.349 28.7722 229.157 28.6742C228.964 28.5762 228.755 28.4614 228.538 28.3229C228.322 28.1844 228.079 28.029 227.819 27.8702C227.559 27.7047 227.248 27.5526 226.89 27.4108C226.532 27.2756 226.116 27.154 225.64 27.0594C225.295 26.9919 224.91 26.948 224.485 26.9243C224.37 26.9142 224.251 26.9142 224.133 26.9142H224.052C222.971 26.9243 221.975 27.1236 221.083 27.502C220.16 27.8972 219.37 28.4614 218.711 29.1911C218.049 29.9241 217.532 30.8126 217.167 31.8565C216.796 32.8936 216.613 34.0624 216.613 35.363C216.613 36.7211 216.796 37.9203 217.167 38.9811C217.536 40.0351 218.036 40.9235 218.674 41.6397C219.313 42.3593 220.049 42.9099 220.9 43.2815C221.731 43.6531 222.623 43.8423 223.572 43.8457H223.626C223.708 43.8457 223.785 43.8457 223.863 43.8423C223.964 43.8423 224.062 43.8355 224.157 43.8322C224.447 43.8186 224.721 43.795 224.978 43.7646C225.441 43.7105 225.866 43.616 226.261 43.4842C226.653 43.3491 227.028 43.1768 227.386 42.9673C227.744 42.7545 228.103 42.491 228.467 42.1768C228.613 42.0552 228.771 41.9539 228.94 41.8762C229.109 41.7951 229.282 41.7546 229.467 41.7546C229.505 41.7546 229.542 41.7546 229.575 41.7579C229.599 41.7546 229.619 41.7546 229.643 41.7546C229.788 41.7546 229.934 41.785 230.079 41.8356C230.211 41.8965 230.352 41.9877 230.488 42.1228Z" fill="white"/>
<path d="M241.317 50.2099C240.801 50.2099 240.317 50.1153 239.868 49.9227C239.419 49.7302 239.03 49.4667 238.699 49.1323C238.372 48.7944 238.108 48.4026 237.919 47.9533C237.726 47.504 237.632 47.0209 237.632 46.504C237.632 45.9872 237.726 45.5041 237.919 45.0548C238.112 44.6055 238.372 44.2136 238.699 43.8825C239.027 43.5481 239.419 43.2846 239.868 43.092C240.317 42.8961 240.804 42.8015 241.328 42.8015C241.844 42.8015 242.324 42.8995 242.77 43.092C243.216 43.288 243.604 43.5515 243.932 43.8825C244.26 44.2136 244.523 44.6055 244.713 45.0548C244.905 45.5041 245 45.9872 245 46.504C245 47.0209 244.905 47.504 244.713 47.9533C244.52 48.4026 244.26 48.7944 243.932 49.1323C243.604 49.4667 243.213 49.7336 242.763 49.9227C242.317 50.1119 241.834 50.2099 241.317 50.2099ZM241.317 49.4971C241.736 49.4971 242.121 49.4228 242.476 49.2674C242.831 49.1154 243.135 48.9059 243.395 48.6357C243.652 48.3654 243.854 48.0512 244 47.6864C244.145 47.3215 244.216 46.9297 244.216 46.5142C244.216 46.0953 244.145 45.7034 244 45.3419C243.854 44.9805 243.652 44.6595 243.395 44.3926C243.135 44.1224 242.831 43.9129 242.476 43.7542C242.121 43.5988 241.74 43.5211 241.331 43.5211C240.912 43.5211 240.527 43.5988 240.172 43.7542C239.818 43.9096 239.51 44.1224 239.247 44.3926C238.986 44.6629 238.78 44.9771 238.635 45.3419C238.49 45.7068 238.419 46.0986 238.419 46.5142C238.419 46.933 238.49 47.3249 238.635 47.6864C238.78 48.0512 238.983 48.3688 239.24 48.6357C239.5 48.9059 239.804 49.1154 240.159 49.2674C240.513 49.4228 240.899 49.4971 241.317 49.4971ZM240.034 44.6122H241.476C241.709 44.6122 241.909 44.646 242.078 44.7136C242.243 44.7811 242.382 44.869 242.493 44.9737C242.601 45.0784 242.682 45.2 242.733 45.3284C242.784 45.4602 242.807 45.5885 242.807 45.7169C242.807 45.9567 242.746 46.1763 242.625 46.3689C242.503 46.5648 242.321 46.7101 242.074 46.8081L242.986 48.3586H242.179L241.341 46.906H240.747V48.3586H240.034V44.6122ZM241.446 46.3419C241.665 46.3419 241.824 46.2878 241.922 46.1831C242.02 46.0784 242.071 45.9365 242.071 45.7574C242.071 45.5716 242.017 45.4365 241.912 45.3419C241.807 45.2507 241.635 45.2034 241.402 45.2034H240.743V46.3385H241.446V46.3419Z" fill="white"/>
</svg>
