<svg width="245" height="79" viewBox="0 0 245 79" fill="none" xmlns="http://www.w3.org/2000/svg">
<path d="M130.637 78.9999V59.7823H133.78V67.671H142.652V59.7823H145.808V78.9999H142.652V70.5693H133.78V78.9495L130.637 78.9999ZM153.109 76.0511V70.5693H160.042V67.671H153.109V62.7311H161.183V59.7823H149.953V78.9999H161.487V76.0511H153.109ZM188.446 76.0511V59.7823H185.302V78.9999H196.456V76.0511H188.446ZM216.33 78.9999V70.5693H225.202V78.9495H228.358V59.7823H225.202V67.671H216.33V59.7823H213.174V78.9999H216.33ZM201.247 78.9999H204.416V62.7311H210.094V59.7823H195.607V62.7311H201.285L201.247 78.9999ZM168.711 74.7783L167.051 78.9999H163.641L171.411 59.7823H174.377L182.159 78.9999H178.75L177.089 74.7783H168.711ZM175.986 71.8295L172.932 64.0543L169.839 71.8295H175.986ZM179.535 11.8455C180.259 12.2615 180.86 12.8596 181.278 13.5796C181.695 14.2995 181.915 15.1161 181.915 15.9473C181.915 16.7785 181.695 17.5951 181.278 18.3151C180.86 19.035 180.259 19.6331 179.535 20.0492C181.925 20.0492 184.218 20.9931 185.908 22.6734C187.598 24.3537 188.547 26.6327 188.547 29.009C188.547 31.3853 187.598 33.6642 185.908 35.3445C184.218 37.0248 181.925 37.9688 179.535 37.9688C178.811 38.3831 178.21 38.9799 177.792 39.6989C177.374 40.4179 177.154 41.2338 177.154 42.0643C177.154 42.8949 177.374 43.7107 177.792 44.4298C178.21 45.1488 178.811 45.7455 179.535 46.1599C184.031 46.0387 188.302 44.1779 191.439 40.9735C194.575 37.7692 196.33 33.4742 196.33 29.0027C196.33 24.5311 194.575 20.2362 191.439 17.0318C188.302 13.8274 184.031 11.9666 179.535 11.8455Z" fill="white"/>
<path d="M22.5481 45.3661H13.4858V8.11549H0V0H35.9071V8.11549H22.5481V45.3661ZM78.9754 0H70.3187V45.3661H78.9754V0ZM218.688 38.0067C217.156 38.0066 215.649 37.6183 214.31 36.8784C212.972 36.1386 211.844 35.0717 211.036 33.7784C210.227 32.4851 209.763 31.0082 209.687 29.4871C209.612 27.966 209.928 26.4509 210.606 25.085C211.283 23.719 212.299 22.5473 213.559 21.6803C214.818 20.8134 216.279 20.28 217.803 20.1304C219.327 19.9808 220.865 20.22 222.271 20.8254C223.676 21.4308 224.903 22.3824 225.836 23.5904L232.376 18.5497C230.181 15.7026 227.145 13.6107 223.693 12.5679C220.241 11.5252 216.547 11.5839 213.13 12.7359C209.714 13.888 206.746 16.0754 204.644 18.9908C202.542 21.9062 201.412 25.4031 201.412 28.9902C201.412 32.5772 202.542 36.0742 204.644 38.9896C206.746 41.905 209.714 44.0924 213.13 45.2444C216.547 46.3965 220.241 46.4552 223.693 45.4124C227.145 44.3697 230.181 42.2778 232.376 39.4307L225.836 34.39C225.006 35.5007 223.929 36.4052 222.689 37.0327C221.449 37.6602 220.079 37.9935 218.688 38.0067ZM157.634 0V29.0469C157.639 32.8512 156.375 36.5496 154.039 39.5628C151.703 42.5759 148.428 44.7335 144.727 45.6975C141.025 46.6614 137.107 46.3773 133.585 44.8896C130.064 43.4019 127.138 40.7946 125.266 37.4764C123.395 34.1582 122.684 30.3165 123.244 26.5532C123.804 22.79 125.604 19.3178 128.362 16.6807C131.12 14.0437 134.68 12.3908 138.484 11.981C142.288 11.5712 146.121 12.4277 149.383 14.4163V0H157.634ZM149.383 29.0469C149.383 27.2743 148.854 25.5415 147.863 24.0678C146.872 22.5941 145.464 21.4457 143.817 20.7679C142.169 20.0901 140.357 19.9134 138.608 20.2602C136.86 20.6069 135.254 21.4615 133.995 22.7158C132.735 23.9701 131.877 25.5678 131.531 27.3067C131.185 29.0455 131.365 30.8474 132.049 32.4844C132.733 34.1214 133.89 35.5198 135.374 36.5028C136.857 37.4858 138.601 38.0092 140.384 38.0067C141.567 38.0067 142.738 37.7749 143.831 37.3244C144.923 36.874 145.916 36.2138 146.752 35.3817C147.587 34.5495 148.25 33.5617 148.701 32.4747C149.153 31.3877 149.384 30.2229 149.383 29.0469ZM179.536 46.1978C178.812 45.7834 178.21 45.1867 177.792 44.4677C177.374 43.7487 177.154 42.9328 177.154 42.1022C177.154 41.2717 177.374 40.4558 177.792 39.7368C178.21 39.0178 178.812 38.4211 179.536 38.0067C177.146 38.0067 174.854 37.0627 173.163 35.3824C171.473 33.7021 170.524 31.4232 170.524 29.0469C170.524 26.6706 171.473 24.3916 173.163 22.7114C174.854 21.0311 177.146 20.0871 179.536 20.0871C180.259 19.671 180.86 19.073 181.278 18.353C181.696 17.633 181.916 16.8164 181.916 15.9852C181.916 15.154 181.696 14.3375 181.278 13.6175C180.86 12.8975 180.259 12.2995 179.536 11.8834C175.04 12.0045 170.769 13.8653 167.632 17.0697C164.496 20.2741 162.741 24.5691 162.741 29.0406C162.741 33.5121 164.496 37.8071 167.632 41.0115C170.769 44.2159 175.04 46.0766 179.536 46.1978ZM101.219 11.8834C96.7236 12.0045 92.4529 13.8653 89.3162 17.0697C86.1794 20.2741 84.4243 24.5691 84.4243 29.0406C84.4243 33.5121 86.1794 37.8071 89.3162 41.0115C92.4529 44.2159 96.7236 46.0766 101.219 46.1978C104.487 46.1887 107.664 45.1227 110.269 43.1608V45.7819H118.507V29.0469C118.509 26.7904 118.063 24.5557 117.194 22.4709C116.326 20.3861 115.052 18.4923 113.446 16.8978C111.84 15.3034 109.933 14.0397 107.835 13.1793C105.737 12.3188 103.489 11.8784 101.219 11.8834ZM101.219 38.0067C99.4387 37.9992 97.7001 37.4674 96.2232 36.4784C94.7462 35.4893 93.5971 34.0874 92.9208 32.4496C92.2446 30.8117 92.0715 29.0114 92.4235 27.2759C92.7755 25.5403 93.6368 23.9474 94.8986 22.6981C96.1604 21.4488 97.7662 20.5993 99.5132 20.2566C101.26 19.9139 103.07 20.0936 104.715 20.7728C106.359 21.452 107.764 22.6004 108.753 24.073C109.741 25.5457 110.269 27.2764 110.269 29.0469C110.267 30.2262 110.032 31.3937 109.576 32.4824C109.12 33.5712 108.453 34.56 107.612 35.3921C106.772 36.2243 105.775 36.8835 104.678 37.3322C103.581 37.7808 102.406 38.01 101.219 38.0067ZM236.838 45.3661H237.535V40.9807H239.17V40.3254H235.203V40.9429H236.838V45.3661ZM242.604 44.7612L244.341 41.7494V45.3661H245V40.3254H244.442L242.44 43.8413L240.437 40.3254H239.867V45.3661H240.526V41.7494L242.262 44.7612H242.604ZM39.2152 32.3233C39.8022 33.8973 40.8028 35.2861 42.113 36.3449C43.4232 37.4037 44.995 38.0939 46.6646 38.3436C48.3342 38.5932 50.0407 38.3932 51.6061 37.7643C53.1716 37.1355 54.5388 36.1008 55.5654 34.7681L61.7506 39.4811C59.2591 42.7034 55.6974 44.9413 51.7007 45.7956C47.704 46.65 43.532 46.0653 39.9285 44.1459C36.325 42.2264 33.5243 39.097 32.0256 35.3154C30.5269 31.5339 30.4277 27.3461 31.7457 23.4985C33.0637 19.651 35.7131 16.394 39.2217 14.308C42.7303 12.222 46.87 11.4427 50.9027 12.109C54.9355 12.7754 58.5991 14.844 61.2405 17.9462C63.8819 21.0483 65.3294 24.9824 65.3249 29.0469C65.323 30.1465 65.2169 31.2435 65.008 32.3233H39.2152ZM39.2152 25.7705H56.9596C56.2965 23.9606 55.0895 22.3973 53.5024 21.2927C51.9152 20.1881 50.0248 19.5956 48.0874 19.5956C46.1501 19.5956 44.2596 20.1881 42.6725 21.2927C41.0853 22.3973 39.8783 23.9606 39.2152 25.7705Z" fill="#351F65"/>
</svg>
